<svg width="100" height="100" viewBox="0 0 100 100" fill="none" xmlns="http://www.w3.org/2000/svg">
<g clip-path="url(#clip0_2716_3)">
<rect width="100" height="100" rx="4" fill="#D9B700"/>
<path d="M18.4517 36.8182H24.652L28.7557 48.0938H29.0369L36.848 36.8182H43.0483L30.6989 53.7443L29.152 63H23.6548L25.2017 53.7443L18.4517 36.8182ZM57.1965 44.4247C57.2391 43.3594 56.928 42.5369 56.2632 41.9574C55.607 41.3778 54.6141 41.0881 53.2845 41.0881C52.3811 41.0881 51.597 41.2159 50.9322 41.4716C50.2675 41.7188 49.7348 42.0639 49.3342 42.5071C48.9422 42.9418 48.6993 43.4446 48.6055 44.0156C48.5118 44.4844 48.5416 44.8935 48.695 45.2429C48.857 45.5923 49.1084 45.8949 49.4493 46.1506C49.7987 46.3977 50.2121 46.6151 50.6893 46.8026C51.1666 46.9815 51.6737 47.1349 52.2107 47.2628L54.4607 47.8253C55.5601 48.081 56.5487 48.4219 57.4266 48.848C58.3129 49.2741 59.0544 49.7983 59.651 50.4205C60.2561 51.0426 60.6822 51.7756 60.9294 52.6193C61.1766 53.4631 61.2107 54.4304 61.0317 55.5213C60.759 57.1236 60.124 58.5128 59.1268 59.6889C58.1297 60.8565 56.8214 61.7642 55.2021 62.4119C53.5828 63.0511 51.7078 63.3707 49.5771 63.3707C47.4635 63.3707 45.678 63.0469 44.2206 62.3991C42.7632 61.7514 41.7021 60.7926 41.0374 59.5227C40.3811 58.2443 40.1851 56.6634 40.4493 54.7798H45.8058C45.7121 55.6577 45.8399 56.3906 46.1893 56.9787C46.5473 57.5582 47.08 57.9972 47.7874 58.2955C48.4947 58.5852 49.3257 58.7301 50.2803 58.7301C51.2263 58.7301 52.0658 58.5937 52.7987 58.321C53.5402 58.0483 54.1411 57.669 54.6013 57.1832C55.0615 56.6974 55.3428 56.1392 55.445 55.5085C55.5473 54.9205 55.4578 54.4261 55.1766 54.0256C54.8953 53.625 54.4436 53.2841 53.8215 53.0028C53.2078 52.7131 52.445 52.4574 51.5331 52.2358L48.7973 51.5199C46.6837 50.983 45.0857 50.1435 44.0033 49.0014C42.9209 47.8594 42.5331 46.321 42.8399 44.3864C43.1126 42.8011 43.7732 41.4162 44.8214 40.2315C45.8783 39.0384 47.2078 38.1136 48.8101 37.4574C50.4209 36.7926 52.1808 36.4602 54.0899 36.4602C56.0331 36.4602 57.6737 36.7969 59.0118 37.4702C60.3499 38.1349 61.3257 39.0639 61.9393 40.2571C62.553 41.4503 62.7405 42.8395 62.5018 44.4247H57.1965ZM78.9863 44.4247C79.0289 43.3594 78.7178 42.5369 78.0531 41.9574C77.3968 41.3778 76.4039 41.0881 75.0744 41.0881C74.171 41.0881 73.3869 41.2159 72.7221 41.4716C72.0573 41.7188 71.5246 42.0639 71.1241 42.5071C70.732 42.9418 70.4891 43.4446 70.3954 44.0156C70.3016 44.4844 70.3315 44.8935 70.4849 45.2429C70.6468 45.5923 70.8982 45.8949 71.2391 46.1506C71.5886 46.3977 72.0019 46.6151 72.4792 46.8026C72.9565 46.9815 73.4636 47.1349 74.0005 47.2628L76.2505 47.8253C77.3499 48.081 78.3386 48.4219 79.2164 48.848C80.1028 49.2741 80.8442 49.7983 81.4408 50.4205C82.046 51.0426 82.4721 51.7756 82.7192 52.6193C82.9664 53.4631 83.0005 54.4304 82.8215 55.5213C82.5488 57.1236 81.9139 58.5128 80.9167 59.6889C79.9195 60.8565 78.6113 61.7642 76.992 62.4119C75.3727 63.0511 73.4977 63.3707 71.367 63.3707C69.2533 63.3707 67.4678 63.0469 66.0104 62.3991C64.5531 61.7514 63.492 60.7926 62.8272 59.5227C62.171 58.2443 61.9749 56.6634 62.2391 54.7798H67.5957C67.5019 55.6577 67.6298 56.3906 67.9792 56.9787C68.3371 57.5582 68.8698 57.9972 69.5772 58.2955C70.2846 58.5852 71.1156 58.7301 72.0701 58.7301C73.0161 58.7301 73.8556 58.5937 74.5886 58.321C75.33 58.0483 75.9309 57.669 76.3911 57.1832C76.8514 56.6974 77.1326 56.1392 77.2349 55.5085C77.3371 54.9205 77.2477 54.4261 76.9664 54.0256C76.6852 53.625 76.2335 53.2841 75.6113 53.0028C74.9977 52.7131 74.2349 52.4574 73.3229 52.2358L70.5871 51.5199C68.4735 50.983 66.8755 50.1435 65.7931 49.0014C64.7107 47.8594 64.3229 46.321 64.6298 44.3864C64.9025 42.8011 65.563 41.4162 66.6113 40.2315C67.6681 39.0384 68.9977 38.1136 70.5999 37.4574C72.2107 36.7926 73.9707 36.4602 75.8798 36.4602C77.8229 36.4602 79.4636 36.7969 80.8016 37.4702C82.1397 38.1349 83.1156 39.0639 83.7292 40.2571C84.3428 41.4503 84.5303 42.8395 84.2917 44.4247H78.9863Z" fill="white"/>
<path d="M0 76H100V96C100 98.2091 98.2091 100 96 100H4C1.79086 100 0 98.2091 0 96V76Z" fill="black" fill-opacity="0.15"/>
<path d="M45.8011 81.3636H47.5511V89.6136C47.5511 90.3598 47.4034 90.9981 47.108 91.5284C46.8163 92.0587 46.4053 92.464 45.875 92.7443C45.3447 93.0208 44.7235 93.1591 44.0114 93.1591C43.3561 93.1591 42.767 93.0398 42.2443 92.8011C41.7254 92.5625 41.3144 92.2159 41.0114 91.7614C40.7121 91.303 40.5625 90.7462 40.5625 90.0909H42.3068C42.3068 90.4129 42.3807 90.6913 42.5284 90.9261C42.6799 91.161 42.8864 91.3447 43.1477 91.4773C43.4129 91.6061 43.7159 91.6705 44.0568 91.6705C44.428 91.6705 44.7424 91.5928 45 91.4375C45.2614 91.2784 45.4602 91.0455 45.5966 90.7386C45.733 90.4318 45.8011 90.0568 45.8011 89.6136V81.3636ZM55.6531 84.4205C55.5925 83.8826 55.3425 83.4659 54.9031 83.1705C54.4637 82.8712 53.9107 82.7216 53.244 82.7216C52.7668 82.7216 52.3539 82.7973 52.0054 82.9489C51.6569 83.0966 51.3861 83.3011 51.1929 83.5625C51.0035 83.8201 50.9088 84.1136 50.9088 84.4432C50.9088 84.7197 50.9732 84.9583 51.102 85.1591C51.2346 85.3598 51.4069 85.5284 51.619 85.6648C51.8349 85.7973 52.066 85.9091 52.3122 86C52.5584 86.0871 52.7952 86.1591 53.0224 86.2159L54.1588 86.5114C54.53 86.6023 54.9107 86.7254 55.3009 86.8807C55.691 87.036 56.0527 87.2405 56.3861 87.4943C56.7194 87.7481 56.9884 88.0625 57.1929 88.4375C57.4012 88.8125 57.5054 89.2614 57.5054 89.7841C57.5054 90.4432 57.3349 91.0284 56.994 91.5398C56.6569 92.0511 56.1664 92.4545 55.5224 92.75C54.8823 93.0455 54.1077 93.1932 53.1986 93.1932C52.3274 93.1932 51.5736 93.0549 50.9372 92.7784C50.3009 92.5019 49.8027 92.1098 49.4429 91.6023C49.083 91.0909 48.8842 90.4848 48.8463 89.7841H50.6077C50.6418 90.2045 50.7781 90.5549 51.0168 90.8352C51.2592 91.1117 51.5679 91.3182 51.9429 91.4545C52.3217 91.5871 52.7365 91.6534 53.1872 91.6534C53.6834 91.6534 54.1247 91.5758 54.5111 91.4205C54.9012 91.2614 55.208 91.0417 55.4315 90.7614C55.655 90.4773 55.7668 90.1458 55.7668 89.767C55.7668 89.4223 55.6683 89.1402 55.4713 88.9205C55.2781 88.7008 55.0149 88.5189 54.6815 88.375C54.352 88.2311 53.9789 88.1042 53.5622 87.9943L52.1872 87.6193C51.2554 87.3655 50.5168 86.9924 49.9713 86.5C49.4296 86.0076 49.1588 85.3561 49.1588 84.5455C49.1588 83.875 49.3406 83.2898 49.7043 82.7898C50.0679 82.2898 50.5603 81.9015 51.1815 81.625C51.8027 81.3447 52.5035 81.2045 53.2838 81.2045C54.0717 81.2045 54.7668 81.3428 55.369 81.6193C55.9751 81.8958 56.4524 82.2765 56.8009 82.7614C57.1493 83.2424 57.3312 83.7955 57.3463 84.4205H55.6531Z" fill="white"/>
</g>
<defs>
<clipPath id="clip0_2716_3">
<rect width="100" height="100" fill="white"/>
</clipPath>
</defs>
</svg>
