<svg width="100" height="100" viewBox="0 0 100 100" fill="none" xmlns="http://www.w3.org/2000/svg">
<g clip-path="url(#clip0_2711_3)">
<rect width="100" height="100" rx="4" fill="#D9B700"/>
<path d="M18.4517 36.8182H24.652L28.7557 48.0937H29.0369L36.848 36.8182H43.0483L30.6989 53.7443L29.152 63H23.6548L25.2017 53.7443L18.4517 36.8182ZM57.1965 44.4247C57.2391 43.3594 56.928 42.5369 56.2632 41.9574C55.607 41.3778 54.6141 41.0881 53.2845 41.0881C52.3811 41.0881 51.597 41.2159 50.9322 41.4716C50.2675 41.7187 49.7348 42.0639 49.3342 42.5071C48.9422 42.9418 48.6993 43.4446 48.6055 44.0156C48.5118 44.4844 48.5416 44.8935 48.695 45.2429C48.857 45.5923 49.1084 45.8949 49.4493 46.1506C49.7987 46.3977 50.2121 46.6151 50.6893 46.8026C51.1666 46.9815 51.6737 47.1349 52.2107 47.2628L54.4607 47.8253C55.5601 48.081 56.5487 48.4219 57.4266 48.848C58.3129 49.2741 59.0544 49.7983 59.651 50.4205C60.2561 51.0426 60.6822 51.7756 60.9294 52.6193C61.1766 53.4631 61.2107 54.4304 61.0317 55.5213C60.759 57.1236 60.124 58.5128 59.1268 59.6889C58.1297 60.8565 56.8214 61.7642 55.2021 62.4119C53.5828 63.0511 51.7078 63.3707 49.5771 63.3707C47.4635 63.3707 45.678 63.0469 44.2206 62.3991C42.7632 61.7514 41.7021 60.7926 41.0374 59.5227C40.3811 58.2443 40.1851 56.6634 40.4493 54.7798H45.8058C45.7121 55.6577 45.8399 56.3906 46.1893 56.9787C46.5473 57.5582 47.08 57.9972 47.7874 58.2955C48.4947 58.5852 49.3257 58.7301 50.2803 58.7301C51.2263 58.7301 52.0658 58.5937 52.7987 58.321C53.5402 58.0483 54.1411 57.669 54.6013 57.1832C55.0615 56.6974 55.3428 56.1392 55.445 55.5085C55.5473 54.9205 55.4578 54.4261 55.1766 54.0256C54.8953 53.625 54.4436 53.2841 53.8215 53.0028C53.2078 52.7131 52.445 52.4574 51.5331 52.2358L48.7973 51.5199C46.6837 50.983 45.0857 50.1435 44.0033 49.0014C42.9209 47.8594 42.5331 46.321 42.8399 44.3864C43.1126 42.8011 43.7732 41.4162 44.8214 40.2315C45.8783 39.0384 47.2078 38.1136 48.8101 37.4574C50.4209 36.7926 52.1808 36.4602 54.0899 36.4602C56.0331 36.4602 57.6737 36.7969 59.0118 37.4702C60.3499 38.1349 61.3257 39.0639 61.9393 40.2571C62.553 41.4503 62.7405 42.8395 62.5018 44.4247H57.1965ZM78.9863 44.4247C79.0289 43.3594 78.7178 42.5369 78.0531 41.9574C77.3968 41.3778 76.4039 41.0881 75.0744 41.0881C74.171 41.0881 73.3869 41.2159 72.7221 41.4716C72.0573 41.7187 71.5246 42.0639 71.1241 42.5071C70.732 42.9418 70.4891 43.4446 70.3954 44.0156C70.3016 44.4844 70.3315 44.8935 70.4849 45.2429C70.6468 45.5923 70.8982 45.8949 71.2391 46.1506C71.5886 46.3977 72.0019 46.6151 72.4792 46.8026C72.9565 46.9815 73.4636 47.1349 74.0005 47.2628L76.2505 47.8253C77.3499 48.081 78.3386 48.4219 79.2164 48.848C80.1028 49.2741 80.8442 49.7983 81.4408 50.4205C82.046 51.0426 82.4721 51.7756 82.7192 52.6193C82.9664 53.4631 83.0005 54.4304 82.8215 55.5213C82.5488 57.1236 81.9139 58.5128 80.9167 59.6889C79.9195 60.8565 78.6113 61.7642 76.992 62.4119C75.3727 63.0511 73.4977 63.3707 71.367 63.3707C69.2533 63.3707 67.4678 63.0469 66.0104 62.3991C64.5531 61.7514 63.492 60.7926 62.8272 59.5227C62.171 58.2443 61.9749 56.6634 62.2391 54.7798H67.5957C67.5019 55.6577 67.6298 56.3906 67.9792 56.9787C68.3371 57.5582 68.8698 57.9972 69.5772 58.2955C70.2846 58.5852 71.1156 58.7301 72.0701 58.7301C73.0161 58.7301 73.8556 58.5937 74.5886 58.321C75.33 58.0483 75.9309 57.669 76.3911 57.1832C76.8514 56.6974 77.1326 56.1392 77.2349 55.5085C77.3371 54.9205 77.2477 54.4261 76.9664 54.0256C76.6852 53.625 76.2335 53.2841 75.6113 53.0028C74.9977 52.7131 74.2349 52.4574 73.3229 52.2358L70.5871 51.5199C68.4735 50.983 66.8755 50.1435 65.7931 49.0014C64.7107 47.8594 64.3229 46.321 64.6298 44.3864C64.9025 42.8011 65.563 41.4162 66.6113 40.2315C67.6681 39.0384 68.9977 38.1136 70.5999 37.4574C72.2107 36.7926 73.9707 36.4602 75.8798 36.4602C77.8229 36.4602 79.4636 36.7969 80.8016 37.4702C82.1397 38.1349 83.1156 39.0639 83.7292 40.2571C84.3428 41.4503 84.5303 42.8395 84.2917 44.4247H78.9863Z" fill="white"/>
</g>
<defs>
<clipPath id="clip0_2711_3">
<rect width="100" height="100" fill="white"/>
</clipPath>
</defs>
</svg>
